<svg xmlns="http://www.w3.org/2000/svg" width="29.249" height="29.25" viewBox="0 0 29.249 29.25">
  <path id="Icon_awesome-sun" data-name="Icon awesome-sun" d="M14.625,9.141a5.484,5.484,0,1,0,5.484,5.484A5.493,5.493,0,0,0,14.625,9.141Zm14.077,4.6-5.41-2.7L25.205,5.3A.988.988,0,0,0,23.954,4.05L18.218,5.964,15.51.548a.989.989,0,0,0-1.771,0l-2.7,5.41L5.3,4.045A.988.988,0,0,0,4.045,5.3l1.914,5.736L.548,13.739a.989.989,0,0,0,0,1.771l5.41,2.7L4.045,23.954A.988.988,0,0,0,5.3,25.205l5.736-1.914,2.7,5.41a.989.989,0,0,0,1.771,0l2.7-5.41,5.736,1.914a.988.988,0,0,0,1.251-1.251L23.28,18.218l5.41-2.7A.99.99,0,0,0,28.7,13.74ZM19.8,19.8a7.312,7.312,0,1,1,0-10.34A7.32,7.32,0,0,1,19.8,19.8Z"/>
</svg>
